<?xml version="1.0" encoding="iso-8859-1"?>
<!-- Generator: Adobe Illustrator 19.0.0, SVG Export Plug-In . SVG Version: 6.00 Build 0)  -->
<svg version="1.1" id="Layer_1" xmlns="http://www.w3.org/2000/svg" xmlns:xlink="http://www.w3.org/1999/xlink" x="0px" y="0px"
	 viewBox="0 0 491.432 491.432" style="enable-background:new 0 0 491.432 491.432;" xml:space="preserve">
<g id="XMLID_1274_">
	<g id="XMLID_1247_">
		<path style="fill:#CA9E67;" d="M84.406,322.621c-21.212,0-38.407-17.195-38.407-38.407s17.196-38.407,38.407-38.407h15.363v76.814
			H84.406z"/>
	</g>
	<g id="XMLID_1248_">
		<path style="fill:#CA9E67;" d="M407.026,322.621c21.212,0,38.407-17.195,38.407-38.407s-17.196-38.407-38.407-38.407h-15.363
			v76.814H407.026z"/>
	</g>
	<g id="XMLID_1206_">
		<path style="fill:#797978;" d="M334.203,483.931H157.229c-31.734,0-57.46-25.726-57.46-57.46V118.912
			c0-31.735,25.726-57.46,57.46-57.46h176.974c31.734,0,57.46,25.726,57.46,57.46v307.559
			C391.663,458.205,365.937,483.931,334.203,483.931z"/>
	</g>
	<g id="XMLID_1075_">
		<path style="fill:#BCBCBB;" d="M248.756,483.931h-107.41c-22.962,0-41.577-18.615-41.577-41.577V114.385
			c0-29.234,23.699-52.934,52.934-52.934h96.054c5.729,0,10.373,4.644,10.373,10.373v401.733
			C259.129,479.287,254.485,483.931,248.756,483.931z"/>
	</g>
	<g id="XMLID_1262_">
		<path style="fill:#CA9E67;" d="M358.135,483.931h-224.84c-1.548,0-2.802-1.255-2.802-2.802V340.786
			c0-1.547,1.254-2.802,2.802-2.802h224.839c1.547,0,2.802,1.254,2.802,2.802V481.13
			C360.938,482.677,359.683,483.931,358.135,483.931z"/>
	</g>
	<g id="XMLID_1263_">
		<circle style="fill:#CA9E67;" cx="184.264" cy="330.302" r="30.726"/>
	</g>
	<g id="XMLID_1264_">
		<circle style="fill:#D5B185;" cx="283.918" cy="437.842" r="46.089"/>
	</g>
	<g id="XMLID_968_">
		<circle style="fill:#D5B185;" cx="184.264" cy="330.302" r="30.726"/>
	</g>
	<g id="XMLID_1265_">
		<circle style="fill:#CA9E67;" cx="307.167" cy="330.302" r="30.726"/>
	</g>
	<g id="XMLID_969_">
		<circle style="fill:#D5B185;" cx="307.167" cy="330.302" r="30.726"/>
	</g>
	<g id="XMLID_960_">
		<circle style="fill:#FFFFFF;" cx="284.122" cy="445.524" r="23.044"/>
	</g>
	<g id="XMLID_488_">
		<g id="XMLID_482_">
			<rect x="176.583" y="322.803" style="fill:#1D1D1B;" width="15.363" height="15"/>
		</g>
		<g id="XMLID_483_">
			<rect x="299.486" y="322.803" style="fill:#1D1D1B;" width="15.363" height="15"/>
		</g>
		<g id="XMLID_398_">
			<polygon style="fill:#1D1D1B;" points="368.438,260.988 122.994,260.988 122.994,238.125 137.994,238.125 137.994,245.988 
				353.438,245.988 353.438,238.125 368.438,238.125 			"/>
		</g>
		<g id="XMLID_407_">
			<rect x="145.857" y="207.581" style="fill:#1D1D1B;" width="199.718" height="15"/>
		</g>
		<g id="XMLID_408_">
			<rect x="168.902" y="261.351" style="fill:#FFFFFF;" width="30.726" height="15"/>
		</g>
		<g id="XMLID_409_">
			<rect x="291.803" y="261.351" style="fill:#FFFFFF;" width="30.726" height="15"/>
		</g>
		<g id="XMLID_410_">
			<rect x="222.672" y="284.396" style="fill:#1D1D1B;" width="46.089" height="15"/>
		</g>
		<g id="XMLID_406_">
			<path style="fill:#1D1D1B;" d="M284.122,476.068c-16.842,0-30.544-13.702-30.544-30.544c0-16.843,13.702-30.545,30.544-30.545
				s30.544,13.702,30.544,30.545C314.667,462.366,300.965,476.068,284.122,476.068z M284.122,429.979
				c-8.571,0-15.544,6.974-15.544,15.545s6.973,15.544,15.544,15.544s15.544-6.973,15.544-15.544S292.694,429.979,284.122,429.979z"
				/>
		</g>
		<g id="XMLID_411_">
			<path style="fill:#1D1D1B;" d="M318.864,427.216c-3.643-16.648-20.156-27.237-36.798-23.588l-3.205-14.654
				c24.727-5.407,49.247,10.31,54.657,35.037L318.864,427.216z"/>
		</g>
		<g id="XMLID_417_">
			<rect x="184.264" y="169.173" style="fill:#1D1D1B;" width="76.814" height="15"/>
		</g>
		<g id="XMLID_484_">
			<rect x="276.441" y="169.173" style="fill:#1D1D1B;" width="30.726" height="15"/>
		</g>
	</g>
	<path style="fill:#1D1D1B;" d="M407.026,238.307h-7.863V114.272c0-33.261-27.06-60.32-60.321-60.32h-85.01
		c3.596-21.958,22.694-38.771,45.653-38.771v-15c-18.461,0-35.027,8.219-46.27,21.175V0h-15v21.357
		C226.973,8.4,210.406,0.182,191.946,0.182v15c22.96,0,42.058,16.812,45.653,38.771H152.59c-33.261,0-60.321,27.06-60.321,60.32
		v124.034h-7.863c-25.313,0-45.907,20.594-45.907,45.907c0,25.314,20.594,45.907,45.907,45.907h7.863v99.094
		c0,34.307,27.91,62.217,62.217,62.217h8.68h165.101h8.68c34.307,0,62.217-27.91,62.217-62.217v-99.094h7.863
		c25.314,0,45.907-20.594,45.907-45.907C452.933,258.9,432.34,238.307,407.026,238.307z M84.405,315.121
		c-17.042,0-30.907-13.865-30.907-30.907s13.865-30.907,30.907-30.907h7.863v23.407H76.724v15h15.544v23.407H84.405z
		 M163.165,476.432c-13.879,0-25.171-11.292-25.171-25.172v-88.286c0-11.059,7.188-20.679,17.887-23.938l5.603-1.707l-0.298-5.85
		c-0.023-0.459-0.077-0.909-0.14-1.357l-0.006-0.044c0.121-12.704,10.493-23.002,23.225-23.002
		c12.807,0,23.226,10.419,23.226,23.227v7.5h76.452v-7.5c0-12.808,10.419-23.227,23.226-23.227
		c12.732,0,23.104,10.298,23.225,23.002l-0.006,0.044c-0.063,0.448-0.117,0.898-0.14,1.357l-0.298,5.85l5.603,1.707
		c10.699,3.259,17.887,12.879,17.887,23.938v88.286c0,13.88-11.292,25.172-25.171,25.172H163.165z M384.163,429.215
		c0,15.44-7.451,29.173-18.945,37.793c2.07-4.839,3.219-10.161,3.219-15.748v-88.286c0-15.8-9.126-29.753-23.212-36.266
		c-1.817-19.399-18.192-34.632-38.059-34.632c-18.511,0-33.992,13.228-37.487,30.727h-47.929
		c-3.495-17.499-18.975-30.727-37.487-30.727c-19.866,0-36.241,15.233-38.059,34.632c-14.085,6.513-23.211,20.467-23.211,36.266
		v88.286c0,5.587,1.149,10.91,3.22,15.749c-11.495-8.62-18.946-22.353-18.946-37.794v-99.094v-91.814V114.272
		c0-24.989,20.331-45.32,45.321-45.32h186.253c24.99,0,45.321,20.331,45.321,45.32v124.034v91.814v99.095H384.163z M407.026,315.121
		h-7.863v-23.407h15.544v-15h-15.544v-23.407h7.863c17.043,0,30.907,13.865,30.907,30.907S424.069,315.121,407.026,315.121z"/>
</g>
<g>
</g>
<g>
</g>
<g>
</g>
<g>
</g>
<g>
</g>
<g>
</g>
<g>
</g>
<g>
</g>
<g>
</g>
<g>
</g>
<g>
</g>
<g>
</g>
<g>
</g>
<g>
</g>
<g>
</g>
</svg>
